<svg xmlns="http://www.w3.org/2000/svg" aria-hidden="true" style="position:absolute;width:0;height:0;overflow:hidden">
  <defs>
    <symbol id="icon-antenna" viewBox="0 0 32 32">
      <path fill="#2e2f42" d="m31 22-9-8 1-5h1a2 2 0 1 0-2-1h-5L9 0H8L7 2l1 1a15 15 0 0 0 2 18v7H4c-2 0-3 1-3 2v1l1 1h24l1-1v-1l-3-2h-6v-3a15 15 0 0 0 10-1h1v1-1l2-1v-1zM23 6a1 1 0 1 1 1 2 1 1 0 0 1-1-2zm-1 4-1 3-1-1 2-2zm-1-1-2 2-1-2h3zm3 20 2 1v1H2v-1l2-1h20zm-7-2v1h-6v-1h6zm-6-1v-4c0-2 1-3 3-3s3 1 3 3v4h-6zm7-2v-2c0-2-2-4-4-4l-3 2C7 16 6 9 8 4l19 19c-3 1-6 2-9 1zm11-1L8 2l1-1 8 8 13 13-1 1z" style="fill:var(--color1, #2e2f42)"/>
      <path fill="#4d5ae5" d="M14 20a2 2 0 1 0 0 3 2 2 0 1 0 0-3zm0 2a1 1 0 0 1 0-1 1 1 0 0 1 0 1z" style="fill:var(--color2, #4d5ae5)"/>
    </symbol>
    <symbol id="icon-clock" viewBox="0 0 32 32">
      <path fill="#2e2f42" d="M31 15a15 15 0 1 0-19 15v-1l4-12a2 2 0 1 0-1-3l-5-6a1 1 0 0 0-1 1l5 5 1 3-4 11a14 14 0 1 1 11 0l-1-2a1 1 0 0 0-1 0l-4 3a1 1 0 0 0 1 1l5 2a1 1 0 0 0 0-1v-2c6-2 9-8 9-14zm-15 0a1 1 0 1 1 0 1 1 1 0 0 1 0-1zm2 15 2-2 1 2h-3z" style="fill:var(--color1, #2e2f42)"/>
      <path fill="#4d5ae5" d="M15 3v1a1 1 0 1 0 2 0V3a1 1 0 0 0-2 0zM4 15a1 1 0 0 0 0 1h1a1 1 0 1 0 0-1H4zM28 16a1 1 0 1 0 0-1h-1a1 1 0 0 0 0 1h1z" style="fill:var(--color2, #4d5ae5)"/>
    </symbol>
    <symbol id="icon-diagram" viewBox="0 0 32 32">
      <path fill="#4d5ae5" d="M15 15h1v5h-1v-5zM19 17h1v3h-1v-3zM11 19h1v1h-1v-1zM7 18h2v2H7v-2z" style="fill:var(--color2, #4d5ae5)"/>
      <path fill="#2e2f42" d="M2 28h25l2-1v-2l-2-2V10l3-3a2 2 0 1 0-1-1l-2 2V7l-2-2H4L2 7v16l-2 2v2l2 1zM30 5a1 1 0 1 1 0 1 1 1 0 0 1 0-1zM3 7l1-1h21l1 1v2l-1 1V8H4v13l1 1h19l1-1v-9l1-1v12H3V7zm5 7a2 2 0 1 0 1 3l2 1 1-1 4-4 3 3h1l3-3v8H5V9h18v2l-3 4-4-3h-1l-4 4h-1v-1l-2-1zm1 1a1 1 0 1 1-2 0 1 1 0 0 1 2 0zm3 9h5v1h-5v-1zM1 25l1-1h9v1l1 1h5l1-1v-1h9l1 1v2H1v-2z" style="fill:var(--color1, #2e2f42)"/>
    </symbol>
    <symbol id="icon-astronaut" viewBox="0 0 32 32">
      <path fill="#4d5ae5" d="M32 5V4h-2l-1-2h-1l-1 2h-2a1 1 0 0 0 0 1l1 1v3h1l1-1 2 1a1 1 0 0 0 1-1l-1-2 2-1zm-2 1h-1l1 1h-1a1 1 0 0 0-1 0h-1V6l-1-1h2V4l1 1h1v1zM26 21h-1v1h1v-1zM26 23h-1v1h1v-1zM27 22h-1v1h1v-1zM25 22h-1v1h1v-1zM22 26h-1v1h1v-1zM22 29h-1v1h1v-1zM23 27h-1v2h1v-2zM21 27h-1v2h1v-2zM16 24h-1v1h1v-1zM16 26h-1v1h1v-1zM17 25h-1v1h1v-1zM15 25h-1v1h1v-1zM6 6H5v1h1V6zM6 8H5v1h1V8zM7 7H6v1h1V7zM5 7H4v1h1V7z" style="fill:var(--color2, #4d5ae5)"/>
      <path fill="#2e2f42" d="m25 14-1-1-2 1-1 1-2 1h-1a7 7 0 0 0-3-14 7 7 0 0 0-6 11H6l-3 2-2 1a2 2 0 0 0 1 3h1l1-1 2-1h2l-6 5-1 2a2 2 0 0 0 0 2 2 2 0 0 0 2 0l2-1 1-2 1 1-2 2-1 1a2 2 0 0 0 0 3 2 2 0 0 0 2 0l4-4 1-1 5-6 4 1 3-2 2-1v-3zM2 18a1 1 0 0 1-1-1l2-1v1l-1 1zm4-2-2 1v-2l2-1v2zm15-7-1 3-4-2-1-1 2-5c2 0 4 3 4 5zM9 9a6 6 0 0 1 7-5l-2 4a2 2 0 1 0 0 4l2-1 4 2A6 6 0 0 1 9 9zm6 1a1 1 0 0 1-2 0 1 1 0 0 1 2 0zM2 25a1 1 0 0 1 0-1l1-1v1l-1 1zm4 4H5a1 1 0 0 1 0-1l1-1 1 1-1 1zm3-4-2 2v-1l1-1v-1l-1-2H6l-2 1H3l3-3 4 4-1 1zm7-7v1l-5 5-5-5 3-2a1 1 0 0 0 0-1H7v-2h3a7 7 0 0 0 6 2l3 1v2l-3-1zm4 1v-2l1-1 1 1-2 2zm4-3-1 1-1-2h1s0-1 0 0a1 1 0 0 1 1 1z" style="fill:var(--color1, #2e2f42)"/>
      <path fill="#2e2f42" d="m14 19-3-3-2 3 2 2 3-2zm-3 1-1-1 1-1 1 1-1 1zM17 5v1l2 2h1c0-2-2-3-3-3zM20 9h-1v1h1V9z" style="fill:var(--color1, #2e2f42)"/>
    </symbol>
    <symbol id="icon-instagram" viewBox="0 0 32 32">
      <path d="m32 9-1-3c0-2-1-3-2-3l-2-2-4-1A110 110 0 0 0 6 1L3 3C2 3 1 4 1 6L0 9a110 110 0 0 0 1 17c0 2 1 3 2 3l3 2 3 1a117 117 0 0 0 18-1c2-1 3-2 4-5l1-3V9zm-3 13v3c-1 2-2 3-4 3l-2 1a113 113 0 0 1-16-1l-2-1-1-2-1-3A113 113 0 0 1 4 7l1-2 2-1 3-1a113 113 0 0 1 16 1l1 1 2 2v15z"/>
      <path d="M16 8a8 8 0 1 0 0 16 8 8 0 0 0 0-16zm0 13a5 5 0 1 1 0-10 5 5 0 0 1 0 10zM27 7a2 2 0 1 1-4 0 2 2 0 0 1 4 0z"/>
    </symbol>
    <symbol id="icon-twitter" viewBox="0 0 32 32">
      <path d="m32 6-4 1c2-1 3-2 3-4l-4 2a7 7 0 0 0-11 6C10 11 5 8 2 4a7 7 0 0 0 2 9l-3-1c0 3 3 6 6 7a7 7 0 0 1-3 0c0 2 3 4 6 4a13 13 0 0 1-10 3A19 19 0 0 0 29 9l3-3z"/>
    </symbol>
    <symbol id="icon-facebook" viewBox="0 0 32 32">
      <path d="M21 5h3V0h-4c-4 0-7 3-7 8v4H8v6h5v14h6V18h4l1-6h-5V8c0-2 0-3 2-3z"/>
    </symbol>
    <symbol id="icon-linkedin" viewBox="0 0 32 32">
      <path d="M32 32V20c0-5-1-10-8-10-3 0-5 2-6 4v-3h-7v21h7V21c0-2 0-5 4-5 3 0 3 3 3 6v10h7zM1 11h6v21H1V11zM4 0C2 0 0 2 0 4s2 4 4 4 4-2 4-4-2-4-4-4z"/>
    </symbol>
    <symbol id="icon-logo-yaco" viewBox="0 0 59 32">
      <path d="m22 4 4 4h-8v18h20v-7l4 4V4H22zm16 15L26 8h12v11zm-4 5H21V11h1v12h12v1zm-10 6-1-1 1 1v1-1l1-1h-1v1zm2-1v2-1h-1v1-2h1zm-1 1h1v-1l-1 1zm3 0v-1h-1 1v1h1v1h-2v-1h1zm0 0v1a1 1 0 0 0 0-1zm0 0v-1 1zm4 0h-1v1h-1v-2c0-1 0 0 0 0h1c1 0 0 0 0 0h1-2v2a1 1 0 0 0 1 0l1-1zm1 0v-1h-1v2a1 1 0 0 0 1 0v-1zm0 0v1c0 1 0 0 0 0h-1v-2c0-1 0 0 0 0h1v1z"/>
    </symbol>
    <symbol id="icon-logo-th" viewBox="0 0 59 32">
      <path d="M29 3h-1a14 14 0 0 0-1 0l-6 2v13h1a22 22 0 0 1 6-2v2h-1a19 19 0 0 0-8 2V4a17 17 0 0 1 9-2 16 16 0 0 1 3 0v2l-2-1zm3 2h1a18 18 0 0 0 8-2v16a17 17 0 0 1-12 2V5a13 13 0 0 0 3 0zm8 0h-1l-2 1a20 20 0 0 1-5 0h-1v13h1l1 1a15 15 0 0 0 6-2h1V5zM20 26a1 1 0 0 0-1 0v4h1a1 1 0 0 0 1-1v-1h-1v1h-1v-3h1v1h1a1 1 0 0 0-1-1zM24 26a1 1 0 0 0-1 0 1 1 0 0 0-1 0v3h1v1a1 1 0 0 0 1-1v-3zm0 3h-1v-3h1v3zM28 30v-4l-1 2-1-2v4-3l1 2 1-2v3zM31 26h-1v4-2h2v-1a3 3 0 0 0 0-1h-1zm0 1h-1v-1h1v1zM34 26l-1 4v-1h1v1h1l-1-4zm0 2v-1 1zM38 28l-1-2h-1v4h1v-3l1 3v-4 2zM41 26v1l-1-1v4h1v-2l1-2h-1zM19 31h1v-1h-1v1zM21 30v1h1l-1-1zm0 1zM23 31h1-1 1l-1-1v1h1-1zM26 30h-1v1h1v-1zM28 30h-1v1h1v-1zM30 31l-1-1v1h1v-1 1zM31 31h1-1 1v-1h-1v1h1-1zM35 31v-1 1h1v-1h-1v1zM37 31h1-1 1v-1h-1v1h1-1zM39 31h1l-1-1v1h1-1zm0 0zM41 31h1-1 1v-1h-1v1h1-1z"/>
    </symbol>
    <symbol id="icon-logo-company" viewBox="0 0 59 32">
      <path d="m21 28-1 1v-1h-1a1 1 0 0 1 0-1 1 1 0 0 1 1 0 2 2 0 0 1 1 0 1 1 0 0 0-1 0v1h1zM25 28h-3v-1a1 1 0 0 1 1 0h1a1 1 0 0 1 1 1zm-1 0v-1h-1v1h1zM27 28l1-1v2-2l-1 1-1-1v2-2l1 1zM30 28v1-2h1v1h-1zm0 0h1v-1h-1v1zM34 29v-1h-1l-1 1 1-2 1 2zm-1-1h1l-1-1v1zM36 27l1 1v-1h1v2h-1v-1l-1-1v2-2zM40 28v1-1l-1-1h1a2 2 0 0 1 0 1v-1h1l-1 1zM27 23l6-4c2-2 1-3 1-5l-2-2c1 2 0 4-1 6l-4 5z"/>
      <path d="m26 23 5-5v-7l-3-3 2 8-4 7zM38 16l-4 6-2 1 4-2 3-4-1-1zM37 16l-2-2-2 5-4 4h1l4-3 3-4z"/>
      <path d="m26 7-2-2-5 4-2 5 2 6c1 2 4 2 6 3 3-2 4-5 4-8s-1-6-3-8zM42 15l-3-6a12 12 0 0 0-12-2l15 12v-4z"/>
    </symbol>
    <symbol id="icon-logo-fp" viewBox="0 0 59 32">
      <path d="M14 12c-2 0-3 1-3 3 0 1 1 2 3 2l2-2c0-2-1-3-2-3zM32 12l-2-5-5-2-5 2-2 5v9s14-1 14-9zM6 24l2 3 3 2 4-2 1-3v-6S6 19 6 24zm5 1h-1v-2h2a1 1 0 0 1 0 2 1 1 0 0 1-1 0zM20 23v3-3zm1 1v1h-1v-1h1zm0-1v1h-1v-1h1zm3 1v1h-1v1h-1v-3h1l1 1zm-1 0h-1v1h1v-1zm2 1v-1h-1v-1h2v1h-1 1v1l-1 1-1-1h1zm2-2v3-3zm1 0v1h-2v-1h2zm2 2v1h-1v-1h1zm-1-2v3h-1v-3h1zm1 1v1h-1v-1h1zm0-1v1h-1v-1h1zm0 0h2v2h-1v-1h1-1v2h-1v-3zm2 3-1-1h1v1zm2-1v-1h1-1c-1 0 0 0 0 0v2h-1v-3h2a1 1 0 0 1 0 1v1h-1zm3 0v1h-1v-1h1zm-1-2v3-3zm1 1v1h-1v-1h1zm0-1v1h-1v-1h1zm2 0v3h-1v-3h1zm0 0v1h-2v-1h2zm2 2v1h-1v-1h1zm-1-2v3-3zm1 1v1h-1v-1h1zm0-1v1h-1v-1h1zm1 0h1v2h-1v-1h1-1v2-3zm1 3-1-1h1v1zm2-1-1-1v-1a1 1 0 0 1 1 0v1h-1 1v1h1-1v1h-1v-1h1z"/>
    </symbol>
    <symbol id="icon-logo-brand" viewBox="0 0 59 32">
      <path d="m15 25 1 1h-1v1h-2v-4h1l1 1v1zm-2 0h2v-1h-2v1zm2 1v-1h-2v1h2zM19 27l-1-2h-1v2-4h1l1 1v1l1 2h-1zm-2-2h1l1-1h-2v1zM23 26h-2v1h-1l2-4h1l1 4h-1v-1zm0 0-1-2v2h1zM28 27l-2-3v3h-1v-4h1l2 3v-3 4zM33 26l-1 1h-2v-4h1l1 1h1a2 2 0 0 1 0 2zm-1 0v-2h-2v2h2zM23 4s10 3 10 8v9s-10-4-10-9V4zM42 19c2-2 4-2 7-3v-2c-3 1-5 2-7 5z"/>
      <path d="M41 19c2-2 4-5 8-6V6s-15 5-14 12v12l1-1v-1c1-3 2-6 5-9z"/>
      <path d="M40 24v-3a11 11 0 0 0-3 8l3-2v-3zM40 24v3c4-2 9-5 9-9v-1l-8 3-1 4z"/>
    </symbol>
    <symbol id="icon-logo-tl" viewBox="0 0 59 32">
      <path d="m31 16-1-1v-2l1-1 1-1 1 1v1h-1v-1h-1v3h1c1 0 0 0 0 0v-1h1v2h-2zM35 16l-1-1v-2l1-1 1-1 1 1v4h-2zm1-1v-3h-1c-1 0 0 0 0 0v3h1zM38 11h1l1 4 1-4h1v5h-1v-3l-1 3-1-3v3h-1v-5zM43 11h2l1 2-1 1h-1v2h-1v-5zm1 2a1 1 0 0 0 1 0v-1h-1v1zM47 11h2l1 5h-1l-1-1-1 1h-1l1-5zm1 3v-2 2zM50 11h1l1 3v-3h1v5l-2-3v3h-1v-5zM55 14l-1-3h1l1 2v-2h1l-1 3v2h-1v-2zM32 18h-1v2-2h-1 2zM35 20h-3l1-2h1l1 2zm-2-1h1-1v-1 1zM36 20a1 1 0 0 0 1 0v-1h-1 1v1h-2v-2h1a2 2 0 0 1 1 0 1 1 0 0 0-1 0v1h-1l1 1zM39 20h1-1v-2 2zM42 20h-1v-2h1v2zM43 18l1 2v-2h1v2h-1l-1-1v1-2zM47 18h-1v1h1-1v1h1-2v-2h2zM12 5l15 4v12l-15-3V5zm-1-1v14l17 4V8L11 4z"/>
      <path d="M20 29 3 25V11l17 4v14z"/>
      <path d="m11 5 15 3-6 6-15-4 6-5zm0-1-8 7 17 4 8-7-17-4zM21 28l7-6-7-1v7z"/>
    </symbol>
  </defs>
</svg>